{
    "asset" : {
        "generator" : "Khronos glTF Blender I/O v1.2.75",
        "version" : "2.0"
    },
    "extensionsUsed" : [
        "KHR_materials_clearcoat"
    ],
    "scene" : 0,
    "scenes" : [
        {
            "name" : "Scene",
            "nodes" : [
                0,
                1,
                2
            ]
        }
    ],
    "nodes" : [
        {
            "name" : "Camera",
            "rotation" : [
                0.483536034822464,
                0.33687159419059753,
                -0.20870360732078552,
                0.7804827094078064
            ],
            "translation" : [
                7.358891487121582,
                4.945772647857666,
                6.925790786743164
            ]
        },
        {
            "mesh" : 0,
            "name" : "Quad Sphere",
            "scale" : [
                0.334102988243103,
                0.334102988243103,
                0.334102988243103
            ]
        },
        {
            "name" : "Light",
            "rotation" : [
                0.16907575726509094,
                0.7558803558349609,
                -0.27217137813568115,
                0.570947527885437
            ],
            "translation" : [
                4.076245307922363,
                5.903861999511719,
                -1.0054539442062378
            ]
        }
    ],
    "materials" : [
        {
            "doubleSided" : true,
            "emissiveFactor" : [
                0.07585351169109344,
                0.02924993261694908,
                0.06558825075626373
            ],
            "extensions" : {
                "KHR_materials_clearcoat" : {
                    "clearcoatFactor" : 0.18581083416938782,
                    "clearcoatRoughnessFactor" : 0.2495945394039154
                }
            },
            "name" : "Material",
            "pbrMetallicRoughness" : {
                "baseColorFactor" : [
                    0.4750808775424957,
                    0.34100931882858276,
                    0.8000000715255737,
                    1
                ],
                "metallicRoughnessTexture" : {
                    "index" : 0,
                    "texCoord" : 0
                },
                "roughnessFactor" : 0.10945945978164673
            }
        }
    ],
    "meshes" : [
        {
            "name" : "Quad Sphere",
            "primitives" : [
                {
                    "attributes" : {
                        "POSITION" : 0,
                        "NORMAL" : 1
                    },
                    "indices" : 2,
                    "material" : 0
                }
            ]
        }
    ],
    "textures" : [
        {
            "source" : 0
        }
    ],
    "images" : [
        {
            "mimeType" : "image/png",
            "name" : "Material Metallic",
            "uri" : "Material%20Metallic.png"
        }
    ],
    "accessors" : [
        {
            "bufferView" : 0,
            "componentType" : 5126,
            "count" : 99502,
            "max" : [
                1.9118050336837769,
                1.4965306520462036,
                1.8175612688064575
            ],
            "min" : [
                -1.9118037223815918,
                -1.5519102811813354,
                -2.088770627975464
            ],
            "type" : "VEC3"
        },
        {
            "bufferView" : 1,
            "componentType" : 5126,
            "count" : 99502,
            "type" : "VEC3"
        },
        {
            "bufferView" : 2,
            "componentType" : 5125,
            "count" : 147456,
            "type" : "SCALAR"
        }
    ],
    "bufferViews" : [
        {
            "buffer" : 0,
            "byteLength" : 1194024,
            "byteOffset" : 0
        },
        {
            "buffer" : 0,
            "byteLength" : 1194024,
            "byteOffset" : 1194024
        },
        {
            "buffer" : 0,
            "byteLength" : 589824,
            "byteOffset" : 2388048
        }
    ],
    "buffers" : [
        {
            "byteLength" : 2977872,
            "uri" : "bird.bin"
        }
    ]
}
